<svg
  xmlns="http://www.w3.org/2000/svg"
  xmlns:xlink="http://www.w3.org/1999/xlink"
  id="visual"
  version="1.1"
  viewBox="0 250 960 291"
>
  <path
    d="M0 250L137 250L137 314L274 314L274 304L411 304L411 283L549 283L549 326L686 326L686 335L823 335L823 291L960 291L960 324L960 541L960 541L823 541L823 541L686 541L686 541L549 541L549 541L411 541L411 541L274 541L274 541L137 541L137 541L0 541Z"
    fill="#ec93cd"
  />
  <path
    d="M0 358L137 358L137 326L274 326L274 356L411 356L411 343L549 343L549 413L686 413L686 318L823 318L823 408L960 408L960 333L960 541L960 541L823 541L823 541L686 541L686 541L549 541L549 541L411 541L411 541L274 541L274 541L137 541L137 541L0 541Z"
    fill="#ea86c7"
  />
  <path
    d="M0 454L137 454L137 408L274 408L274 452L411 452L411 490L549 490L549 416L686 416L686 465L823 465L823 398L960 398L960 448L960 541L960 541L823 541L823 541L686 541L686 541L549 541L549 541L411 541L411 541L274 541L274 541L137 541L137 541L0 541Z"
    fill="#e779c1"
  />
</svg>
