<svg
  xmlns="http://www.w3.org/2000/svg"
  xmlns:xlink="http://www.w3.org/1999/xlink"
  id="visual"
  version="1.1"
  viewBox="0 344 960 197"
>
  <path
    d="M0 344L22.8 344.2C45.7 344.3 91.3 344.7 137 353.2C182.7 361.7 228.3 378.3 274 380C319.7 381.7 365.3 368.3 411.2 366.2C457 364 503 373 548.8 372C594.7 371 640.3 360 686 361.5C731.7 363 777.3 377 823 378.3C868.7 379.7 914.3 368.3 937.2 362.7L960 357L960 541L937.2 541C914.3 541 868.7 541 823 541C777.3 541 731.7 541 686 541C640.3 541 594.7 541 548.8 541C503 541 457 541 411.2 541C365.3 541 319.7 541 274 541C228.3 541 182.7 541 137 541C91.3 541 45.7 541 22.8 541L0 541Z"
    fill="#a1dadd"
  />
  <path
    d="M0 372L22.8 370C45.7 368 91.3 364 137 371.8C182.7 379.7 228.3 399.3 274 404.5C319.7 409.7 365.3 400.3 411.2 396.5C457 392.7 503 394.3 548.8 392.7C594.7 391 640.3 386 686 391.8C731.7 397.7 777.3 414.3 823 412C868.7 409.7 914.3 388.3 937.2 377.7L960 367L960 541L937.2 541C914.3 541 868.7 541 823 541C777.3 541 731.7 541 686 541C640.3 541 594.7 541 548.8 541C503 541 457 541 411.2 541C365.3 541 319.7 541 274 541C228.3 541 182.7 541 137 541C91.3 541 45.7 541 22.8 541L0 541Z"
    fill="#93d5d8"
  />
  <path
    d="M0 449L22.8 449.7C45.7 450.3 91.3 451.7 137 449.2C182.7 446.7 228.3 440.3 274 432.3C319.7 424.3 365.3 414.7 411.2 408.2C457 401.7 503 398.3 548.8 401.5C594.7 404.7 640.3 414.3 686 423.2C731.7 432 777.3 440 823 439.8C868.7 439.7 914.3 431.3 937.2 427.2L960 423L960 541L937.2 541C914.3 541 868.7 541 823 541C777.3 541 731.7 541 686 541C640.3 541 594.7 541 548.8 541C503 541 457 541 411.2 541C365.3 541 319.7 541 274 541C228.3 541 182.7 541 137 541C91.3 541 45.7 541 22.8 541L0 541Z"
    fill="#84cfd2"
  />
  <path
    d="M0 484L22.8 478.2C45.7 472.3 91.3 460.7 137 457.3C182.7 454 228.3 459 274 464.5C319.7 470 365.3 476 411.2 472.8C457 469.7 503 457.3 548.8 451.3C594.7 445.3 640.3 445.7 686 448C731.7 450.3 777.3 454.7 823 453.3C868.7 452 914.3 445 937.2 441.5L960 438L960 541L937.2 541C914.3 541 868.7 541 823 541C777.3 541 731.7 541 686 541C640.3 541 594.7 541 548.8 541C503 541 457 541 411.2 541C365.3 541 319.7 541 274 541C228.3 541 182.7 541 137 541C91.3 541 45.7 541 22.8 541L0 541Z"
    fill="#75c9cd"
  />
  <path
    d="M0 513L22.8 513.3C45.7 513.7 91.3 514.3 137 513.5C182.7 512.7 228.3 510.3 274 510.5C319.7 510.7 365.3 513.3 411.2 507.5C457 501.7 503 487.3 548.8 486C594.7 484.7 640.3 496.3 686 502.5C731.7 508.7 777.3 509.3 823 506.8C868.7 504.3 914.3 498.7 937.2 495.8L960 493L960 541L937.2 541C914.3 541 868.7 541 823 541C777.3 541 731.7 541 686 541C640.3 541 594.7 541 548.8 541C503 541 457 541 411.2 541C365.3 541 319.7 541 274 541C228.3 541 182.7 541 137 541C91.3 541 45.7 541 22.8 541L0 541Z"
    fill="#65c3c8"
  />
</svg>
