<svg
  xmlns="http://www.w3.org/2000/svg"
  xmlns:xlink="http://www.w3.org/1999/xlink"
  id="visual"
  version="1.1"
  viewBox="0 331.8 960 209.2"
>
  <path
    d="M0 339L22.8 336.2C45.7 333.3 91.3 327.7 137 336.7C182.7 345.7 228.3 369.3 274 374.2C319.7 379 365.3 365 411.2 364.8C457 364.7 503 378.3 548.8 379.3C594.7 380.3 640.3 368.7 686 365.2C731.7 361.7 777.3 366.3 823 367.5C868.7 368.7 914.3 366.3 937.2 365.2L960 364L960 541L937.2 541C914.3 541 868.7 541 823 541C777.3 541 731.7 541 686 541C640.3 541 594.7 541 548.8 541C503 541 457 541 411.2 541C365.3 541 319.7 541 274 541C228.3 541 182.7 541 137 541C91.3 541 45.7 541 22.8 541L0 541Z"
    fill="#dbca9a"
  />
  <path
    d="M0 395L22.8 393.3C45.7 391.7 91.3 388.3 137 391.2C182.7 394 228.3 403 274 399.5C319.7 396 365.3 380 411.2 371.8C457 363.7 503 363.3 548.8 372.3C594.7 381.3 640.3 399.7 686 405.5C731.7 411.3 777.3 404.7 823 404.7C868.7 404.7 914.3 411.3 937.2 414.7L960 418L960 541L937.2 541C914.3 541 868.7 541 823 541C777.3 541 731.7 541 686 541C640.3 541 594.7 541 548.8 541C503 541 457 541 411.2 541C365.3 541 319.7 541 274 541C228.3 541 182.7 541 137 541C91.3 541 45.7 541 22.8 541L0 541Z"
    fill="#e2be91"
  />
  <path
    d="M0 444L22.8 440.7C45.7 437.3 91.3 430.7 137 428.2C182.7 425.7 228.3 427.3 274 428.2C319.7 429 365.3 429 411.2 426.2C457 423.3 503 417.7 548.8 415C594.7 412.3 640.3 412.7 686 414.7C731.7 416.7 777.3 420.3 823 427.7C868.7 435 914.3 446 937.2 451.5L960 457L960 541L937.2 541C914.3 541 868.7 541 823 541C777.3 541 731.7 541 686 541C640.3 541 594.7 541 548.8 541C503 541 457 541 411.2 541C365.3 541 319.7 541 274 541C228.3 541 182.7 541 137 541C91.3 541 45.7 541 22.8 541L0 541Z"
    fill="#e9b28d"
  />
  <path
    d="M0 470L22.8 470.3C45.7 470.7 91.3 471.3 137 465.5C182.7 459.7 228.3 447.3 274 442.7C319.7 438 365.3 441 411.2 448.3C457 455.7 503 467.3 548.8 468.2C594.7 469 640.3 459 686 456.2C731.7 453.3 777.3 457.7 823 460.7C868.7 463.7 914.3 465.3 937.2 466.2L960 467L960 541L937.2 541C914.3 541 868.7 541 823 541C777.3 541 731.7 541 686 541C640.3 541 594.7 541 548.8 541C503 541 457 541 411.2 541C365.3 541 319.7 541 274 541C228.3 541 182.7 541 137 541C91.3 541 45.7 541 22.8 541L0 541Z"
    fill="#eea58e"
  />
  <path
    d="M0 505L22.8 501.2C45.7 497.3 91.3 489.7 137 489C182.7 488.3 228.3 494.7 274 494.7C319.7 494.7 365.3 488.3 411.2 483.8C457 479.3 503 476.7 548.8 478.7C594.7 480.7 640.3 487.3 686 491C731.7 494.7 777.3 495.3 823 496.2C868.7 497 914.3 498 937.2 498.5L960 499L960 541L937.2 541C914.3 541 868.7 541 823 541C777.3 541 731.7 541 686 541C640.3 541 594.7 541 548.8 541C503 541 457 541 411.2 541C365.3 541 319.7 541 274 541C228.3 541 182.7 541 137 541C91.3 541 45.7 541 22.8 541L0 541Z"
    fill="#ef9995"
  />
</svg>
