<svg
  xmlns="http://www.w3.org/2000/svg"
  xmlns:xlink="http://www.w3.org/1999/xlink"
  id="visual"
  version="1.1"
  viewBox="0 325 960 216"
>
  <path
    d="M0 371L137 347L274 367L411 341L549 357L686 325L823 366L960 327L960 541L823 541L686 541L549 541L411 541L274 541L137 541L0 541Z"
    fill="#871400"
  />
  <path
    d="M0 407L137 379L274 395L411 387L549 386L686 386L823 365L960 366L960 541L823 541L686 541L549 541L411 541L274 541L137 541L0 541Z"
    fill="#9d390f"
  />
  <path
    d="M0 423L137 428L274 433L411 422L549 410L686 409L823 451L960 441L960 541L823 541L686 541L549 541L411 541L274 541L137 541L0 541Z"
    fill="#b25721"
  />
  <path
    d="M0 443L137 462L274 485L411 465L549 463L686 461L823 440L960 470L960 541L823 541L686 541L549 541L411 541L274 541L137 541L0 541Z"
    fill="#c77535"
  />
  <path
    d="M0 491L137 486L274 486L411 480L549 516L686 493L823 479L960 491L960 541L823 541L686 541L549 541L411 541L274 541L137 541L0 541Z"
    fill="#db924b"
  />
</svg>
